HIERARCHY
ROOT Hips
{
    OFFSET 0.000000 0.000000 0.000000
    CHANNELS 6 Xposition Yposition Zposition Zrotation Xrotation Yrotation
    JOINT Spine
    {
        OFFSET -0.000000 14.517291 0.000000
        CHANNELS 3 Zrotation Xrotation Yrotation
        JOINT Spine1
        {
            OFFSET -0.000000 37.558300 0.000000
            CHANNELS 3 Zrotation Xrotation Yrotation
            JOINT Neck
            {
                OFFSET -0.000000 37.404057 3.400369
                CHANNELS 3 Zrotation Xrotation Yrotation
                JOINT Head
                {
                    OFFSET -0.000000 24.785618 -3.540803
                    CHANNELS 3 Zrotation Xrotation Yrotation
                    End Site
                    {
                        OFFSET -0.000000 35.408028 0.000000
                    }
                }
            }
            JOINT LeftShoulder
            {
                OFFSET 6.992933 33.973492 -0.192664
                CHANNELS 3 Zrotation Xrotation Yrotation
                JOINT LeftArm
                {
                    OFFSET 21.527611 0.000000 0.000000
                    CHANNELS 3 Zrotation Xrotation Yrotation
                    JOINT LeftForeArm
                    {
                        OFFSET 56.353916 0.000000 0.000000
                        CHANNELS 3 Zrotation Xrotation Yrotation
                        JOINT LeftHand
                        {
                            OFFSET 47.774071 0.000000 0.000000
                            CHANNELS 3 Zrotation Xrotation Yrotation
                            End Site
                            {
                                OFFSET 26.556021 0.000000 0.000000
                            }
                        }
                    }
                }
            }
            JOINT RightShoulder
            {
                OFFSET -7.065357 33.973492 -0.192664
                CHANNELS 3 Zrotation Xrotation Yrotation
                JOINT RightArm
                {
                    OFFSET -21.527611 0.000000 0.000000
                    CHANNELS 3 Zrotation Xrotation Yrotation
                    JOINT RightForeArm
                    {
                        OFFSET -56.353916 0.000000 0.000000
                        CHANNELS 3 Zrotation Xrotation Yrotation
                        JOINT RightHand
                        {
                            OFFSET -47.774071 0.000000 0.000000
                            CHANNELS 3 Zrotation Xrotation Yrotation
                            End Site
                            {
                                OFFSET -26.556021 0.000000 0.000000
                            }
                        }
                    }
                }
            }
        }
    }
    JOINT LeftUpLeg
    {
        OFFSET 17.704014 0.000000 0.000000
        CHANNELS 3 Zrotation Xrotation Yrotation
        JOINT LeftLeg
        {
            OFFSET -0.000000 -81.181816 0.000000
            CHANNELS 3 Zrotation Xrotation Yrotation
            JOINT LeftFoot
            {
                OFFSET -0.000000 -62.821102 0.000000
                CHANNELS 3 Zrotation Xrotation Yrotation
                JOINT LeftToeBase
                {
                    OFFSET -0.000000 -11.507608 26.556021
                    CHANNELS 3 Zrotation Xrotation Yrotation
                    End Site
                    {
                        OFFSET -0.000000 0.000000 7.081605
                    }
                }
            }
        }
    }
    JOINT RightUpLeg
    {
        OFFSET -17.704014 0.000000 0.000000
        CHANNELS 3 Zrotation Xrotation Yrotation
        JOINT RightLeg
        {
            OFFSET -0.000000 -81.181816 0.000000
            CHANNELS 3 Zrotation Xrotation Yrotation
            JOINT RightFoot
            {
                OFFSET -0.000000 -62.821102 0.000000
                CHANNELS 3 Zrotation Xrotation Yrotation
                JOINT RightToeBase
                {
                    OFFSET -0.000000 -11.507608 26.556021
                    CHANNELS 3 Zrotation Xrotation Yrotation
                    End Site
                    {
                        OFFSET -0.000000 0.000000 7.081605
                    }
                }
            }
        }
    }
}
MOTION
Frames:    7
Frame Time:    0.008333
-5.462471    153.239639    -12.585222    -1.529578    0.309967    20.126539    1.871451    1.580810    8.024775    -10.522707    -4.869169    2.234148    8.382637    0.020264    -9.103294    6.049527    5.418366    -10.154625    5.892783    4.529504    -9.383778    -45.528046    17.274069    -43.151493    -13.183796    -8.561691    -129.544876    4.116918    -35.060627    -5.394968    -23.233095    -16.343140    -2.566064    16.993055    -37.081245    57.988274    -4.939863    -28.486137    6.267539    17.131796    -22.887815    37.980061    2.926110    -33.143013    -27.623810    -11.119129    21.624271    -19.870985    -9.867964    3.060413    29.857635    0.000000    0.000000    0.000000    3.530499    13.790632    -9.707913    3.610875    19.038580    -1.188024    -2.668703    -26.812113    -7.430840    0.000000    0.000000    0.000000    
-5.436131    153.251022    -12.593785    -1.529710    0.313586    20.089588    1.871691    1.570094    7.996728    -10.519092    -4.895662    2.222449    8.455183    0.020152    -9.076189    6.034528    5.497742    -10.142826    5.932692    4.552956    -9.411311    -45.523750    17.261597    -43.159992    -13.181911    -8.566271    -129.530411    4.103765    -35.052837    -5.407012    -23.329433    -16.471292    -2.675518    17.047518    -37.177593    57.975674    -4.959948    -28.615192    6.446676    17.052612    -23.047731    37.934010    2.933232    -33.134613    -27.629307    -11.119485    21.612005    -19.858753    -9.907125    3.036995    29.892401    0.000000    0.000000    0.000000    3.508945    13.791652    -9.629382    3.632673    19.025518    -1.217965    -2.694745    -26.801222    -7.457119    0.000000    0.000000    0.000000    
-5.408664    153.263702    -12.601902    -1.527851    0.315253    20.043514    1.860688    1.559734    7.964996    -10.502947    -4.924861    2.209759    8.538482    0.028148    -9.048387    6.006492    5.572382    -10.132244    5.966328    4.566878    -9.439702    -45.525829    17.257666    -43.159374    -13.172112    -8.587775    -129.525650    4.117958    -35.050079    -5.397965    -23.380114    -16.540148    -2.748320    17.028137    -37.236023    57.943779    -5.048995    -28.776133    6.636181    16.940464    -23.238033    37.949699    2.944602    -33.120766    -27.617897    -11.115063    21.598225    -19.865877    -9.923993    3.022184    29.937115    0.000000    0.000000    0.000000    3.485472    13.791454    -9.580644    3.639184    19.019512    -1.199098    -2.724072    -26.792074    -7.492830    0.000000    0.000000    0.000000    
-5.382084    153.274094    -12.611739    -1.522204    0.310019    19.988760    1.850074    1.545255    7.928797    -10.488783    -4.932353    2.197485    8.627698    0.029476    -9.021376    5.974463    5.653799    -10.124538    6.005722    4.563719    -9.460851    -45.541527    17.232014    -43.154079    -13.171601    -8.573785    -129.509750    4.084503    -35.028900    -5.443524    -23.385973    -16.586439    -2.825361    17.014021    -37.319405    57.989101    -5.114929    -28.879919    6.761730    16.897762    -23.352655    37.945263    2.959120    -33.100555    -27.617983    -11.118068    21.587126    -19.841873    -9.948640    2.996571    29.958033    0.000000    0.000000    0.000000    3.460129    13.793586    -9.521152    3.644122    19.022533    -1.183685    -2.729352    -26.788782    -7.534879    0.000000    0.000000    0.000000    
-5.352076    153.280991    -12.624804    -1.514522    0.306557    19.928534    1.834133    1.539966    7.895499    -10.443866    -4.958201    2.186353    8.637793    0.017122    -9.007859    5.991401    5.776159    -10.117797    5.994431    4.555739    -9.498449    -45.524845    17.229731    -43.123360    -13.163423    -8.619634    -129.530411    4.076425    -35.062725    -5.444023    -23.457592    -16.647198    -2.895032    17.120745    -37.428444    58.066002    -5.106230    -28.917858    6.911220    16.786194    -23.421629    37.953415    2.970366    -33.082458    -27.601788    -11.120505    21.582188    -19.809378    -9.946094    2.987600    29.967846    0.000000    0.000000    0.000000    3.427049    13.790799    -9.460453    3.640504    19.035204    -1.184245    -2.737020    -26.794683    -7.524468    0.000000    0.000000    0.000000    
-5.322593    153.287292    -12.643424    -1.502089    0.290298    19.855907    1.836857    1.548319    7.868252    -10.427675    -4.986180    2.175440    8.661633    0.066946    -8.993919    6.006628    5.831503    -10.104512    5.993845    4.556963    -9.538325    -45.493668    17.216585    -43.113827    -13.158693    -8.683088    -129.541946    4.049086    -35.111767    -5.443627    -23.519239    -16.720089    -2.906949    17.172554    -37.461716    58.058743    -5.161051    -28.927591    7.044675    16.802841    -23.413403    37.982574    2.989301    -33.052761    -27.569523    -11.123082    21.579214    -19.806204    -9.980485    2.952454    30.018887    0.000000    0.000000    0.000000    3.386227    13.796274    -9.387956    3.655635    19.054176    -1.182622    -2.767642    -26.808184    -7.547936    0.000000    0.000000    0.000000    
-5.291305    153.292206    -12.663078    -1.489058    0.275190    19.775106    1.826697    1.545871    7.847625    -10.402800    -4.999888    2.168315    8.717854    0.088567    -8.970851    5.984836    5.901164    -10.092788    6.013334    4.556650    -9.577315    -45.500183    17.182211    -43.114388    -13.154170    -8.685800    -129.535324    4.077461    -35.102173    -5.412915    -23.552689    -16.818321    -2.906014    17.174103    -37.472767    58.022156    -5.135572    -28.922676    7.177393    16.717585    -23.428114    38.006996    3.015113    -33.021072    -27.542593    -11.135547    21.567818    -19.762020    -10.004371    2.919094    30.039574    0.000000    0.000000    0.000000    3.345840    13.798887    -9.360915    3.641358    19.080847    -1.173486    -2.753125    -26.829651    -7.509881    0.000000    0.000000    0.000000    
